<?xml version="1.0" encoding="utf-8"?>
<!-- Generator: Adobe Illustrator 23.0.6, SVG Export Plug-In . SVG Version: 6.00 Build 0)  -->
<svg version="1.1" id="Layer_1" xmlns="http://www.w3.org/2000/svg" xmlns:xlink="http://www.w3.org/1999/xlink" x="0px" y="0px"
	 viewBox="0 0 600 114" style="enable-background:new 0 0 600 114;" xml:space="preserve">
<style type="text/css">
	.st0{fill:#6D6E71;}
	.st1{fill:#FFFFFF;}
	.st2{fill:#EF433F;}
	.st3{fill:#231F20;}
	.st4{fill:#E0E322;}
	.st5{fill:#929497;}
	.st6{fill:none;stroke:#929497;stroke-miterlimit:10;}
</style>
<g>
	<path class="st0" d="M84.68,64.74c0.66,0.43,1.27,0.94,1.82,1.52l18.12-7.15c-0.36-0.61-0.75-1.21-1.16-1.78L84.68,64.74z
		 M94.87,19.15v-0.11c0-1.01-0.64-1.2-1.14-1.21l-1.16,0l-0.01,2.52l1.16,0C94.22,20.36,94.86,20.16,94.87,19.15z M108.69,74.34
		l-19.32,7.62c-1.36,6.68-6,9.28-10.98,9.27l-1.18,0c-2.49-0.01-4.75-0.56-6.59-1.87l-18.78,7.41c4.9,7.15,13.52,11,25.92,11.03
		c20.24,0.05,30.92-11.4,30.96-29.51l0.01-2.25C108.72,75.47,108.71,74.9,108.69,74.34z M106.53,63.13
		c-0.25-0.66-0.52-1.3-0.81-1.92l-17.79,7.02c0.33,0.58,0.63,1.21,0.88,1.89L106.53,63.13z M89.41,72.41
		c0.13,0.67,0.23,1.37,0.29,2.13l18.11-7.14c-0.16-0.69-0.33-1.37-0.52-2.03L89.41,72.41z M89.78,77.77c0,0.53-0.03,1.03-0.06,1.52
		l18.8-7.42c-0.07-0.72-0.15-1.44-0.26-2.14l-18.48,7.29L89.78,77.77z M86.05,18.33l-0.74,3.29l1.47,0L86.05,18.33z M54.57,76.62
		l-7.62,3c0.02,0.75,0.06,1.48,0.11,2.2l13.15-5.19L54.57,76.62z M65.88,76.92l-18.56,7.32c0.1,0.72,0.2,1.42,0.33,2.11l18.32-7.23
		C65.92,78.43,65.89,77.7,65.88,76.92z M67.61,85.78l-17.96,7.08c0.29,0.64,0.59,1.27,0.92,1.88l18.17-7.17
		C68.33,87.04,67.95,86.45,67.61,85.78z M76.8,62.83l0.71,0c1.47,0,2.87,0.19,4.17,0.57l20.25-7.99c-5.06-5.75-12.85-9-23.08-9.02
		c-5.09-0.01-9.83,1.04-13.97,2.8l0.88-18.7l41.89,0.11l0.04-16.57l-57.75-0.15l-2.26,50.65l16.2,5.6
		C66.38,65.17,71.95,62.82,76.8,62.83z M97.93,22.13l1.86,0c0,1.12,0.45,1.59,1.31,1.6h0.1c0.86,0,1.28-0.46,1.29-1.05v-0.06
		c0-0.64-0.33-1-1.62-1.17c-1.95-0.27-2.86-0.96-2.86-2.57l0-0.13c0-1.61,1.12-2.65,3.16-2.65c2.2,0.01,3.16,0.98,3.15,3.08l0,0.24
		l-1.86,0c0-1.17-0.35-1.71-1.29-1.71h-0.1c-0.74,0-1.18,0.41-1.18,0.98l0,0.06c0,0.65,0.26,1,1.57,1.17
		c1.95,0.27,2.93,0.94,2.93,2.6l0,0.11c0,1.72-1.14,2.71-3.24,2.71c-2.11,0-3.22-0.95-3.21-3.1L97.93,22.13z M90.72,16.22l2.93,0.01
		c1.45,0,3.1,0.39,3.1,2.76l0,0.23c0,1.44-0.61,2.15-1.41,2.48l1.4,3.47l-2,0l-1.22-3.21l-0.95,0l-0.01,3.21l-1.86,0L90.72,16.22z
		 M84.78,16.18l2.55,0.01l2.21,8.96l-1.98,0l-0.43-1.93l-2.19-0.01l-0.43,1.92l-1.99-0.01L84.78,16.18z M76.12,16.19l5.46,0.01
		l0,1.6l-3.61-0.01l0,1.97l3.04,0.01l0,1.6l-3.04-0.01l-0.01,2.15l3.61,0.01l0,1.6l-5.46-0.01L76.12,16.19z M70.1,16.17l1.46,3.91
		l1.47-3.9l2.03,0l-2.57,6.19l-0.01,2.74l-1.86,0l0.01-2.74l-2.55-6.2L70.1,16.17z M66.27,81.54l-18.08,7.13
		c0.18,0.68,0.38,1.35,0.6,2l17.95-7.08C66.55,82.96,66.4,82.27,66.27,81.54z"/>
	<polygon class="st0" points="23.9,37.25 23.72,105.61 42.65,105.66 42.89,13.87 28.81,13.83 0,33.28 9.31,47.03 	"/>
	<g>
		<path class="st1" d="M73.04,42.18l-1.86,0l0.02-8.93l2.93,0.01c1.45,0,3.1,0.39,3.1,2.76l0,0.23c0,1.44-0.61,2.15-1.42,2.48
			l1.4,3.47l-2-0.01L74,38.97l-0.95,0L73.04,42.18z M74.21,37.37c0.5,0,1.15-0.19,1.15-1.2v-0.11c0-1.01-0.64-1.2-1.14-1.21l-1.16,0
			l-0.01,2.52L74.21,37.37z"/>
		<path class="st1" d="M78.62,39.36l0.02-6.11l1.86,0l-0.02,6.05c0,0.95,0.29,1.43,1.35,1.44c1.05,0,1.36-0.48,1.37-1.43l0.02-6.05
			l1.86,0l-0.02,6.11c-0.01,1.95-0.8,2.98-3.23,2.97C79.39,42.34,78.61,41.31,78.62,39.36z"/>
		<path class="st1" d="M93.15,42.23l-1.96-0.01l-2.87-5.55l0.05,1.8l-0.01,3.75l-1.75,0l0.02-8.93l1.96,0l2.86,5.55l-0.05-1.8
			l0.01-3.75l1.76,0L93.15,42.23z"/>
		<path class="st1" d="M101.31,42.25l-1.96,0l-2.87-5.55l0.05,1.8l-0.01,3.75l-1.75,0l0.02-8.93l1.96,0l2.86,5.55l-0.05-1.8
			l0.01-3.75l1.76,0L101.31,42.25z"/>
		<path class="st1" d="M104.85,42.26l-1.86,0l0.02-8.93l1.86,0L104.85,42.26z"/>
		<path class="st1" d="M113.07,42.28l-1.96,0l-2.87-5.55l0.05,1.8l-0.01,3.75l-1.75,0l0.02-8.93l1.96,0l2.86,5.55l-0.05-1.8
			l0.01-3.75l1.76,0L113.07,42.28z"/>
		<path class="st1" d="M114.51,38.04l0-0.46c0.01-3.09,1.12-4.38,3.44-4.38c2.13,0.01,3.25,0.9,3.25,3.13l0,0.41l-1.86,0
			c0-1.23-0.26-1.94-1.29-1.94h-0.1c-1.23,0-1.54,0.99-1.54,2.78l0,0.46c0,1.79,0.29,2.78,1.6,2.79l0.1,0
			c0.53,0,0.94-0.15,1.22-0.34l0-1.43l-1.18,0l0-1.6l3.04,0.01l-0.01,3.94c-0.67,0.55-1.57,1.04-3.13,1.03
			C115.61,42.43,114.5,41.14,114.51,38.04z"/>
	</g>
	<path class="st2" d="M48.9,76.75l-4.22,1.66l0,1.69l4.25-1.68C48.91,77.87,48.9,77.32,48.9,76.75z M51.15,90.17l-6.5,2.56l0,1.69
		l7.12-2.81C51.54,91.14,51.34,90.66,51.15,90.17z M49.13,81.43l-4.46,1.76l0,1.69l4.66-1.84C49.25,82.51,49.19,81.97,49.13,81.43z
		 M49.85,85.91l-5.19,2.05l0,1.69l5.59-2.2C50.1,86.94,49.97,86.43,49.85,85.91z M44.63,97.5l0,1.69l9.36-3.69
		c-0.31-0.43-0.6-0.88-0.88-1.34L44.63,97.5z M67.84,75.09c0,0.22,0.01,0.43,0.01,0.64l59.02-23.28l0-1.69L65.22,75.08L67.84,75.09z
		 M68.3,80.32l58.56-23.1l0-1.69l-58.81,23.2C68.11,79.29,68.2,79.81,68.3,80.32z M72.9,88.04l53.93-21.27l0-1.69L71.49,86.91
		C71.93,87.34,72.4,87.72,72.9,88.04z M53.22,75.05l4.24,0.01l69.42-27.39l0-1.69L53.22,75.05z M69.73,84.52l57.12-22.53l0-1.69
		L69.08,83.09C69.27,83.6,69.49,84.08,69.73,84.52z"/>
	<polygon class="st1" points="25.86,35.69 25.68,104.05 44.62,104.1 44.85,12.3 30.77,12.27 1.96,31.72 11.28,45.47 	"/>
	<g>
		<path class="st1" d="M108.76,62.25c-0.24-0.66-0.5-1.3-0.78-1.93l-17.74,7c0.29,0.6,0.53,1.25,0.74,1.95L108.76,62.25z"/>
		<path class="st1" d="M87.36,63.68c0.59,0.46,1.13,0.99,1.62,1.6l17.96-7.09c-0.34-0.62-0.71-1.22-1.1-1.81L87.36,63.68z"/>
		<path class="st1" d="M91.61,78.55l18.95-7.47c-0.06-0.73-0.14-1.44-0.23-2.15l-18.59,7.33C91.74,77.07,91.68,77.82,91.61,78.55z"
			/>
		<path class="st1" d="M91.52,71.58c0.1,0.68,0.16,1.41,0.19,2.16l18.23-7.19c-0.14-0.7-0.31-1.38-0.49-2.05L91.52,71.58z"/>
		<path class="st1" d="M110.67,73.56l-19.53,7.7c-1.57,6.05-6.03,8.42-10.79,8.41l-1.18,0c-2.15-0.01-4.13-0.43-5.82-1.38l0,0
			c-0.8-0.45-1.54-1.04-2.19-1.75c-0.21-0.23-0.41-0.47-0.6-0.73c-0.01-0.01-0.01-0.02-0.02-0.03c-0.21-0.29-0.41-0.59-0.59-0.91
			l0,0c-0.37-0.64-0.7-1.35-0.98-2.14l0,0c-0.22-0.61-0.41-1.26-0.56-1.97c-0.16-0.75-0.3-1.55-0.39-2.42l0.01,0
			c-0.07-0.69-0.12-1.42-0.14-2.19l0,0c-0.01-0.35-0.02-0.69-0.02-1.06l-15.68-0.04h0l-3.25-0.01l0,1.29l0,0.25
			c-0.01,2.42,0.16,4.71,0.49,6.86l0,0c0.01,0.05,0.02,0.1,0.03,0.16c0.23,1.48,0.55,2.89,0.94,4.23l-0.01,0
			c0.02,0.07,0.05,0.13,0.07,0.2c0.42,1.39,0.92,2.71,1.51,3.95l0,0c0.01,0.02,0.02,0.04,0.03,0.06c0.3,0.61,0.61,1.21,0.95,1.79
			c0,0,0,0,0,0l0,0c0.67,1.14,1.43,2.21,2.27,3.2c0.02,0.02,0.04,0.05,0.06,0.07c0.32,0.37,0.65,0.74,0.99,1.09
			c0.01,0.01,0.03,0.03,0.04,0.04c0.73,0.74,1.51,1.43,2.34,2.07c0,0,0,0,0,0c0.39,0.3,0.79,0.58,1.2,0.86
			c0.08,0.05,0.16,0.1,0.24,0.16c0.35,0.23,0.71,0.45,1.07,0.66c0.1,0.06,0.19,0.11,0.29,0.17c0.39,0.22,0.8,0.43,1.21,0.64
			c0.06,0.03,0.12,0.06,0.18,0.09c0.48,0.23,0.96,0.45,1.46,0.66c0.09,0.04,0.19,0.07,0.28,0.11c0.39,0.16,0.79,0.31,1.2,0.45
			c0.18,0.07,0.37,0.13,0.56,0.19c0.33,0.11,0.66,0.21,1,0.31c0.22,0.06,0.43,0.13,0.65,0.19c0.33,0.09,0.67,0.18,1.01,0.26
			c0.22,0.05,0.44,0.11,0.67,0.16c0.47,0.1,0.95,0.2,1.44,0.29c0.3,0.05,0.6,0.1,0.91,0.15c0.34,0.05,0.69,0.11,1.04,0.16
			c0.3,0.04,0.61,0.07,0.92,0.11c0.31,0.03,0.61,0.07,0.92,0.1c0.33,0.03,0.65,0.06,0.99,0.08c0.11,0.01,0.22,0.02,0.33,0.03v-0.01
			c1.15,0.08,2.32,0.13,3.54,0.13c20.24,0.05,30.92-11.4,30.96-29.51l0.01-2.25C110.68,74.17,110.67,73.87,110.67,73.56z"/>
		<path class="st1" d="M78.76,61.27l0.71,0c1.89,0,3.66,0.31,5.25,0.93l19.67-7.76c-5.04-6.11-13-9.59-23.57-9.62
			c-5.09-0.01-9.83,1.04-13.97,2.8l0.88-18.7l41.89,0.11l0.04-16.57l-57.75-0.15l-2.26,50.65l16.2,5.6
			C68.34,63.61,73.91,61.25,78.76,61.27z"/>
	</g>
	<g>
		<g>
			<path class="st3" d="M72.47,25.11l-1.86,0l0.01-2.74l-2.55-6.2l2.03,0l1.46,3.91l1.47-3.9l2.03,0l-2.57,6.19L72.47,25.11z"/>
			<path class="st3" d="M81.59,16.2l0,1.6l-3.61-0.01l0,1.97l3.04,0.01l0,1.6l-3.04-0.01l-0.01,2.15l3.61,0.01l0,1.6l-5.46-0.01
				l0.02-8.93L81.59,16.2z"/>
			<path class="st3" d="M87.34,16.19l2.21,8.96l-1.98,0l-0.43-1.93l-2.19-0.01l-0.43,1.92l-1.99-0.01l2.26-8.95L87.34,16.19z
				 M85.31,21.62l1.47,0l-0.72-3.29L85.31,21.62z"/>
			<path class="st3" d="M92.55,25.16l-1.86,0l0.02-8.93l2.93,0.01c1.45,0,3.1,0.39,3.1,2.76l0,0.23c0,1.44-0.61,2.15-1.41,2.48
				l1.4,3.47l-2,0l-1.22-3.21l-0.95,0L92.55,25.16z M93.72,20.35c0.5,0,1.15-0.19,1.15-1.2v-0.11c0-1.01-0.64-1.2-1.14-1.21l-1.16,0
				l-0.01,2.52L93.72,20.35z"/>
			<path class="st3" d="M98.01,18.88l0-0.13c0-1.61,1.12-2.65,3.16-2.65c2.2,0.01,3.16,0.98,3.15,3.08l0,0.24l-1.86,0
				c0-1.17-0.35-1.71-1.29-1.71h-0.1c-0.74,0-1.18,0.41-1.18,0.98l0,0.06c0,0.65,0.26,1,1.57,1.17c1.95,0.27,2.93,0.94,2.93,2.6
				l0,0.11c0,1.72-1.14,2.71-3.24,2.71c-2.11,0-3.22-0.95-3.21-3.1l0-0.1l1.86,0c0,1.12,0.45,1.59,1.31,1.6h0.1
				c0.86,0,1.28-0.46,1.29-1.05v-0.06c0-0.64-0.33-1-1.62-1.17C98.92,21.18,98,20.49,98.01,18.88z"/>
		</g>
	</g>
</g>
<g>
	<path class="st1" d="M305.08,81.61l-19.78,32.21h2.07l19.78-32.21H305.08z M345.79,0l-19.06,30.97h2.07L347.86,0H345.79z M355.11,0
		l-19.06,30.97h2.07L357.28,0H355.11z M295.66,81.61l-19.78,32.21h2.07l19.78-32.21H295.66z M364.53,0l-19.06,30.97h2.07L366.6,0
		H364.53z M294.62,113.82h2.07l19.78-32.21h-2.07L294.62,113.82z"/>
	<g>
		<g>
			<path class="st4" d="M375.36,72.6h-5.7l-7.04-23.2l0.21,6.84V72.6h-5.7V39.46h8.39l7.04,23.3l7.04-23.3h8.39V72.6h-5.7V56.14
				l0.21-6.84L375.36,72.6z"/>
		</g>
		<g>
			<path class="st4" d="M410.36,39.25l8.7,33.25h-6.11l-1.86-7.56h-9.32l-1.86,7.56h-6.11l8.7-33.25H410.36z M403.01,60.07h6.94
				l-3.42-14.29L403.01,60.07z"/>
		</g>
		<g>
			<path class="st4" d="M430.66,72.6h-5.7V39.46h10.36c5.18,0,11.08,1.55,11.08,9.94v0.83c0,5.28-2.38,7.87-5.39,9.11l5.39,13.26
				h-6.11l-4.76-12.32h-4.87V72.6z M435.53,55.2c2.17,0,5.07-0.83,5.07-5.18v-0.41c0-4.35-2.9-5.18-5.07-5.18h-4.87v10.87h4.87V55.2
				z"/>
		</g>
		<g>
			<path class="st4" d="M467.74,39.25l8.7,33.25h-6.11l-1.86-7.56h-9.32l-1.86,7.56h-6.11l8.7-33.25H467.74z M460.39,60.07h6.94
				l-3.42-14.29L460.39,60.07z"/>
		</g>
		<g>
			<path class="st4" d="M491.98,72.6h-5.7V44.43h-7.87v-4.97h21.44v4.97h-7.87V72.6z"/>
		</g>
		<g>
			<path class="st4" d="M528.43,39.46V72.6h-5.7V58.1h-11.29v14.4h-5.7V39.36h5.7v13.77h11.29V39.46H528.43z"/>
		</g>
		<g>
			<path class="st4" d="M535.48,56.86V55.2c0-11.5,3.94-16.26,12.22-16.26c8.29,0,12.22,4.76,12.22,16.26v1.66
				c0,11.5-3.94,16.26-12.22,16.26C539.41,73.12,535.48,68.36,535.48,56.86z M547.9,68.15c4.66,0,6.21-3.83,6.21-11.29V55.2
				c0-7.46-1.66-11.29-6.21-11.29h-0.41c-4.66,0-6.21,3.83-6.21,11.29v1.66c0,7.46,1.66,11.29,6.21,11.29H547.9z"/>
		</g>
		<g>
			<path class="st4" d="M590.37,72.6h-6.01l-12.22-22.79l0.21,7.04v15.85h-5.39V39.56h6.01l12.22,22.79l-0.21-7.04V39.46h5.39V72.6z
				"/>
		</g>
	</g>
	<g>
		<path class="st1" d="M196.7,71.88h0.31c5.7,0,8.08-3.31,8.08-9.63h1.86v0.41c0,6.73-3.21,10.87-10.15,10.87
			c-7.35,0-11.08-4.76-11.08-16.47v-1.76c0-11.7,3.73-16.47,11.08-16.47c6.94,0,10.15,4.14,10.15,11.5v1.04h-1.86
			c0-7.77-2.49-10.87-8.08-10.87h-0.31c-6.01,0-9.22,4.25-9.22,14.81v1.76C187.58,67.73,190.59,71.88,196.7,71.88z"/>
		<path class="st1" d="M215.03,57.07v-1.76c0-11.7,3.73-16.47,11.08-16.47c7.35,0,11.08,4.76,11.08,16.47v1.76
			c0.1,11.7-3.62,16.47-11.08,16.47C218.76,73.53,215.03,68.77,215.03,57.07z M226.32,71.88c6.11,0,9.22-4.25,9.22-14.81v-1.76
			c0-10.56-3-14.81-9.22-14.81h-0.31c-6.11,0-9.22,4.25-9.22,14.81v1.76c0,10.56,3,14.81,9.22,14.81H226.32z"/>
		<path class="st1" d="M246.51,73.12V39.36h1.76v32.11h14.91v1.66H246.51z"/>
		<path class="st1" d="M287.63,39.36v1.66H272.1V55.1h13.46v1.66H272.1v16.36h-1.76V39.36H287.63z"/>
		<path class="st1" d="M304.31,38.94l10.25,34.18h-1.86L310,64.01h-13.77l-2.69,9.11h-1.86l10.25-34.18H304.31z M296.54,62.35h12.84
			l-6.42-21.65L296.54,62.35z"/>
		<path class="st1" d="M331.03,56.14l-10.46-16.78h2.07l9.42,15.33l9.42-15.33h2.07L333.1,56.14l10.46,16.99h-2.07l-9.42-15.33
			l-9.42,15.33h-2.07L331.03,56.14z"/>
	</g>
	<g>
		<path class="st4" d="M596.48,65.56c1.97,0,3.52,1.55,3.52,3.52c0,1.97-1.55,3.52-3.52,3.52s-3.52-1.55-3.52-3.52
			C592.96,67.11,594.61,65.56,596.48,65.56z M596.48,72.19c1.66,0,3.11-1.35,3.11-3.11c0-1.66-1.35-3.11-3.11-3.11
			c-1.66,0-3.11,1.35-3.11,3.11C593.48,70.74,594.82,72.19,596.48,72.19z M595.75,71.15h-0.83v-4.04h1.76
			c0.62,0,1.35,0.21,1.35,1.24v0c0,0.62-0.31,0.93-0.62,1.14l0.62,1.66h-0.83l-0.52-1.55h-0.93L595.75,71.15L595.75,71.15z
			 M596.58,68.98c0.31,0,0.62-0.1,0.62-0.62v-0.1c0-0.52-0.41-0.62-0.62-0.62h-0.83v1.35C595.75,68.98,596.58,68.98,596.58,68.98z"
			/>
	</g>
	<g>
		<polygon class="st5" points="318.93,16.45 329.11,0 326.94,0 316.81,16.45 		"/>
		<polygon class="st5" points="276.91,81.61 257.13,113.82 259.2,113.82 278.98,81.61 		"/>
		<polygon class="st5" points="266.56,113.82 268.63,113.82 288.41,81.61 286.34,81.61 		"/>
		<polygon class="st5" points="336.36,0 317.3,30.97 319.38,30.97 338.43,0 		"/>
	</g>
	<g>
		<path class="st5" d="M194.36,10.01h-6.33v21.37h6.33c6.15,0,8.78-3.03,8.78-10.14v-1.09C203.14,13.04,200.51,10.01,194.36,10.01z
			 M199.28,20.15v1.09c0,4.85-1.49,6.83-5.14,6.83h-2.33V13.32h2.33C197.79,13.32,199.28,15.3,199.28,20.15z"/>
		<polygon class="st5" points="224.25,13.32 224.25,10.01 211.48,10.01 211.48,31.38 224.25,31.38 224.25,28.07 215.26,28.07 
			215.26,22.12 222.88,22.12 222.88,18.83 215.26,18.83 215.26,13.32 		"/>
		<polygon class="st5" points="244.19,10.01 244.19,20.24 244.3,24.46 236.56,10.01 232.59,10.01 232.59,31.38 236.18,31.38 
			236.18,21.14 236.07,16.92 243.81,31.38 247.78,31.38 247.78,10.01 		"/>
		<polygon class="st5" points="266.99,10.01 262.88,26.99 258.73,10.01 254.68,10.01 260.29,31.49 265.43,31.49 271.05,10.01 		"/>
		<polygon class="st5" points="290.71,13.32 290.71,10.01 277.95,10.01 277.95,31.38 290.71,31.38 290.71,28.07 281.72,28.07 
			281.72,22.12 289.35,22.12 289.35,18.83 281.72,18.83 281.72,13.32 		"/>
		<path class="st5" d="M308.78,22.85c2.28-0.92,3.44-2.9,3.44-5.86v-0.55c0-4.33-2.35-6.43-7.17-6.43h-6.71v21.37h3.77v-7.93h3
			l3.05,7.93h4.08L308.78,22.85z M308.39,16.58v0.3c0,2.16-1.08,3.26-3.21,3.26h-3.07v-6.82h3.07
			C307.31,13.32,308.39,14.42,308.39,16.58z"/>
	</g>
</g>
<line class="st6" x1="155.99" y1="11.85" x2="155.99" y2="107.8"/>
</svg>
