<?xml version="1.0" encoding="utf-8"?>
<!-- Generator: Adobe Illustrator 21.1.0, SVG Export Plug-In . SVG Version: 6.00 Build 0)  -->
<svg version="1.1" id="Layer_1" xmlns="http://www.w3.org/2000/svg" xmlns:xlink="http://www.w3.org/1999/xlink" x="0px" y="0px"
	 viewBox="0 0 400 113" style="enable-background:new 0 0 400 113;" xml:space="preserve">
<style type="text/css">
	.st0{fill:#929497;}
	.st1{fill:#E0E21B;}
	.st2{fill:#FFFFFF;}
</style>
<g>
	<path class="st0" d="M156.2,80.6l-19.6,31.8h2.1l19.6-31.8H156.2z M196.4,0l-18.8,30.6h2.1L198.5,0H196.4z M205.7,0l-18.8,30.6h2.1
		L207.8,0H205.7z M146.9,80.6l-19.6,31.8h2.1L149,80.6H146.9z M215,0l-18.8,30.6h2.1L217.1,0H215z M145.9,112.5h2.1l19.6-31.8h-2.1
		L145.9,112.5z"/>
</g>
<g>
	<g>
		<path class="st1" d="M187.4,71.7h-5.6l-7-23l0.2,6.8v16.2h-5.6V39h8.3l7,23l7-23h8.3v32.7h-5.6V55.5l0.2-6.8L187.4,71.7z"/>
	</g>
	<g>
		<path class="st1" d="M222.1,38.8l8.6,32.9h-6l-1.8-7.5h-9.2l-1.8,7.5h-6.1l8.6-32.9H222.1z M214.8,59.3h6.8l-3.4-14.1L214.8,59.3z
			"/>
	</g>
	<g>
		<path class="st1" d="M242.1,71.7h-5.6V39h10.2c5.1,0,11,1.5,11,9.8v0.8c0,5.2-2.3,7.8-5.3,9l5.3,13.1h-6.1l-4.7-12.2h-4.8V71.7z
			 M247,54.6c2.2,0,5-0.8,5-5.1V49c0-4.3-2.9-5.1-5-5.1h-4.8v10.7H247z"/>
	</g>
	<g>
		<path class="st1" d="M278.8,38.8l8.6,32.9h-6l-1.8-7.5h-9.2l-1.8,7.5h-6.1l8.6-32.9H278.8z M271.5,59.3h6.8l-3.4-14.1L271.5,59.3z
			"/>
	</g>
	<g>
		<path class="st1" d="M302.7,71.7h-5.6V43.9h-7.8V39h21.2v4.9h-7.8V71.7z"/>
	</g>
	<g>
		<path class="st1" d="M338.7,39v32.7h-5.6V57.5H322v14.3h-5.6V39h5.6v13.6h11.1V39H338.7z"/>
	</g>
	<g>
		<path class="st1" d="M345.7,56.2v-1.7c0-11.3,3.9-16.1,12.1-16.1c8.2,0,12.1,4.7,12.1,16.1v1.7c0,11.3-3.9,16.1-12.1,16.1
			C349.6,72.3,345.7,67.5,345.7,56.2z M358,67.4c4.6,0,6.2-3.8,6.2-11.2v-1.7c0-7.4-1.6-11.2-6.2-11.2h-0.4c-4.6,0-6.2,3.8-6.2,11.2
			v1.7c0,7.4,1.6,11.2,6.2,11.2H358z"/>
	</g>
	<g>
		<path class="st1" d="M400,71.7h-6L382,49.1l0.2,6.9v15.6h-5.3V39h6l12.1,22.6l-0.2-6.9V39h5.3V71.7z"/>
	</g>
</g>
<g>
	<path class="st2" d="M10.9,71.1h0.3c5.6,0,8-3.3,8-9.5h1.8V62c0,6.6-3.2,10.7-10,10.7C3.6,72.7,0,68,0,56.4v-1.7
		c0-11.6,3.6-16.3,10.9-16.3c6.8,0,10,4.1,10,11.3v1.1h-1.8c0-7.7-2.5-10.8-8-10.8h-0.3c-5.9,0-9.1,4.2-9.1,14.6v1.7
		C1.8,66.9,4.8,71.1,10.9,71.1z"/>
	<path class="st2" d="M29,56.4v-1.7c0-11.6,3.7-16.3,11-16.3c7.3,0,11,4.7,11,16.3v1.7c0,11.6-3.7,16.3-11,16.3
		C32.7,72.7,29,68,29,56.4z M40.1,71.1c6.1,0,9.1-4.2,9.1-14.6v-1.7c0-10.5-3-14.6-9.1-14.6h-0.3c-6.1,0-9.1,4.2-9.1,14.6v1.7
		c0,10.5,3,14.6,9.1,14.6H40.1z"/>
	<path class="st2" d="M60.1,72.3V38.9h1.7v31.8h14.8v1.6H60.1z"/>
	<path class="st2" d="M100.8,38.9v1.6H85.3v13.9h13.3V56H85.3v16.2h-1.7V38.9H100.8z"/>
	<path class="st2" d="M117.2,38.4l10.1,33.8h-1.9l-2.7-9h-13.7l-2.7,9h-1.9l10.1-33.8H117.2z M109.6,61.6h12.7l-6.3-21.4L109.6,61.6
		z"/>
	<path class="st2" d="M143.6,55.4l-10.4-16.6h2.1l9.3,15.1l9.3-15.1h2.1l-10.4,16.6L156,72.3h-2.1l-9.3-15.2l-9.3,15.2h-2.1
		L143.6,55.4z"/>
</g>
<g>
	<g>
		<path class="st2" d="M12.2,18.7c-0.2-0.2-0.5-0.3-0.7-0.4l-0.4,8.2l2-5.7C13.3,20,12.8,19.3,12.2,18.7z"/>
		<path class="st2" d="M8.8,18.2l1.2,8.2l1.2-8.2C10.5,18,9.6,17.9,8.8,18.2z"/>
		<path class="st2" d="M7.8,18.7c-0.6,0.5-1.1,1.2-0.9,2.1l2,5.7l-0.4-8.2C8.3,18.4,8,18.5,7.8,18.7z"/>
		<path class="st2" d="M3.7,19.5c1.4,2.4,2.7,4.9,4.1,7.2c-0.5-2-1-5.3-1.7-6.3C5.4,19.3,3.7,19.5,3.7,19.5z"/>
		<path class="st2" d="M1.3,20.7l5.6,6.4l-3.4-7.6C2.5,19.6,1.8,20,1.3,20.7z"/>
		<path class="st2" d="M12.9,22.4L12,26.8c1.2-2.1,2.4-4.1,3.5-6.2C14.4,20.8,13.3,21.2,12.9,22.4z"/>
		<path class="st2" d="M15.9,20.7l-2.9,6.5l5.1-5.6C17.5,21,16.7,20.7,15.9,20.7z"/>
		<path class="st2" d="M0.6,23.6C2.4,25,4.2,26.4,6,27.8l-4.9-6.9C0.7,21.7,0.6,22.6,0.6,23.6z"/>
		<path class="st2" d="M18.7,22.4c-0.1-0.2-0.2-0.4-0.4-0.6l-4.4,6.1c1.8-1.3,3.5-2.7,5.2-4C19,23.4,18.9,22.8,18.7,22.4z"/>
		<path class="st2" d="M0.6,26.4l4.7,2.2C3.8,27,2.2,25.5,0.6,24L0.6,26.4z"/>
		<path class="st2" d="M19,26.6v-2.2l-4.5,4.3C16.1,28,17.5,27.3,19,26.6z"/>
		<path class="st2" d="M0.6,28.6c1.4,0.3,3,0.7,4.3,1l-4.3-2.8V28.6z"/>
		<path class="st2" d="M19,28.7V27c-1.3,0.9-2.7,1.7-4,2.6L19,28.7z"/>
		<polygon class="st2" points="0.6,30.7 4.8,30.7 0.6,28.9 		"/>
		<path class="st2" d="M19,30.7v-1.6c-1.4,0.6-2.6,1.1-3.9,1.6H19z"/>
		<path class="st2" d="M17.6,18.5c0-2.5-3.6-2.5-3.6,0C14,20.8,17.7,20.9,17.6,18.5z"/>
		<path class="st2" d="M17.6,18.5C17.6,18.5,17.6,18.5,17.6,18.5C17.6,18.5,17.6,18.5,17.6,18.5L17.6,18.5z"/>
		<path class="st2" d="M5.7,17.2c0.1-2.5-3.8-2.4-3.6,0C1.9,19.7,5.9,19.8,5.7,17.2z"/>
		<path class="st2" d="M10,17.7c1.4,0,2-1,2.1-2c0.1-1.5-0.9-2.2-2.1-2.2c-1.1,0-2.1,0.7-2,2.2C8,16.5,8.4,17.7,10,17.7z"/>
		<rect x="40.6" y="20.8" class="st2" width="1.7" height="9.8"/>
		<path class="st2" d="M34.6,20.8l-2.9,8.3L29,25.6l3.7-4.8h-1.9l-3.5,4.7v-4.7h-1.7l0,9.8h1.7v-4.8l3.6,4.8h0.4l0,0h1.7l0.9-2.8
			h3.6l0.9,2.8h1.8l-3.4-9.8H34.6z M34.3,26.4l1.3-4.1h0l1.4,4.1H34.3z"/>
		<path class="st2" d="M97.3,27.9l-1.7-7.1h-3v9.8c0.8,0,1.7,0,1.7,0v-8.4l2.2,8.4c0,0,0.7,0,1.7,0c0,0,2.1-8.3,2.1-8.3v8.3h1.7
			v-9.8H99L97.3,27.9z"/>
		<path class="st2" d="M106.2,20.8l-3.4,9.8h1.7l0.9-2.8h3.6l0.9,2.8h1.8l-3.4-9.8H106.2z M105.8,26.4l1.3-4.1h0l1.4,4.1H105.8z"/>
		<path class="st2" d="M118.5,28.4l-3.9-7.6l-2.2,0l0,9.8c0.8,0,1.6,0,1.6,0v-7.4l3.8,7.4h2.3v-9.8h-1.6V28.4z"/>
		<path class="st2" d="M150.6,29.2h-4v-2.8h3V25l-3,0v-2.8c0.4,0,3.7,0,3.7,0v-1.4c-1,0-5.4,0-5.4,0l0,9.8l5.7,0L150.6,29.2z"/>
		<path class="st2" d="M135.2,20.8L135.2,20.8l-0.3,0v7.7l-3.9-7.6h-2.2v8.4h-5.1v-2.8h3V25l-3,0v-2.8c0.4,0,3.7,0,3.7,0v-1.4
			c-1,0-5.4,0-5.4,0l0,9.8l8.3,0l0,0c0.1,0,0.1,0,0.1,0v-7.5l3.8,7.5h2.3v-8.3c1,0,2.1,0,3,0v8.3h1.7v-8.3h2.9l0-1.5H135.2z"/>
		<path class="st2" d="M90.2,25.7c0.5-0.5,0.9-1.2,0.9-2.1c0-0.9-0.4-1.6-0.9-2.1c-0.6-0.5-1.4-0.7-2.8-0.7h-2.8V25h0v4.2h-5.2v-2.8
			h3V25l-3,0v-2.8c0.4,0,3.7,0,3.7,0v-1.4c-1,0-5.4,0-5.4,0v9.8l8.6,0v-4.2H87c0.8,1.2,2.4,4.2,2.4,4.2h2l-2.6-4.3
			C89.4,26.2,89.8,26,90.2,25.7z M86.2,25L86.2,25v-2.8h1.4c1.3,0,1.8,0.5,1.8,1.4c0,0.9-0.5,1.4-1.8,1.4H86.2z"/>
		<path class="st2" d="M63.4,25.7c0.5-0.5,0.9-1.2,0.9-2.1c0-0.9-0.4-1.6-0.9-2.1c-0.6-0.5-1.4-0.7-2.8-0.7h-2.8V25h0v4.2h-5.2v-2.8
			h3V25l-3,0v-2.8c0.4,0,3.7,0,3.7,0v-1.4c-1,0-5.4,0-5.4,0v9.8l8.6,0v-4.2h0.8c0.8,1.2,2.4,4.2,2.4,4.2h2l-2.6-4.3
			C62.7,26.2,63.1,26,63.4,25.7z M59.5,25L59.5,25v-2.8h1.4c1.3,0,1.8,0.5,1.8,1.4c0,0.9-0.5,1.4-1.8,1.4H59.5z"/>
		<path class="st2" d="M75.7,21.6c-0.6-0.5-1.4-0.7-2.8-0.7H70v5.8l0,0v4h1.7v-4h1.1c1.4,0,2.2-0.2,2.8-0.8c0.5-0.5,0.9-1.2,0.9-2.1
			C76.6,22.8,76.2,22,75.7,21.6z M73.1,25.2h-1.4v-2.9h1.4c1.3,0,1.8,0.6,1.8,1.4C74.9,24.6,74.3,25.2,73.1,25.2z"/>
		<path class="st2" d="M47.3,24.9c-1.3-0.5-2-0.9-2-1.6c0-0.6,0.6-1.3,1.8-1.3c0.9,0,1.7,0.3,2.1,0.5v-1.4c-0.4-0.2-1.3-0.5-2.1-0.5
			c-2.1,0-3.5,1.2-3.5,2.8c0,1.4,1.1,2.3,2.7,2.8c1.3,0.4,1.8,0.9,1.8,1.7c0,0.8-0.7,1.4-1.9,1.4c-0.9,0-2.1-0.3-2.7-0.7v1.5
			c0.6,0.3,1.6,0.6,2.6,0.6c2.5,0,3.7-1.4,3.7-2.9C49.9,26.4,49,25.5,47.3,24.9z"/>
	</g>
	<path class="st2" d="M152.1,28.9c0-0.9,0.7-1.6,1.6-1.6c0.9,0,1.6,0.7,1.6,1.6c0,1-0.7,1.7-1.6,1.7
		C152.9,30.5,152.1,29.8,152.1,28.9z M153.8,30.9c1.1,0,2-0.8,2-2c0-1.1-0.9-2-2-2c-1.1,0-2,0.8-2,2C151.7,30,152.7,30.9,153.8,30.9
		z M153.3,29h0.4l0.6,1h0.4l-0.7-1c0.3,0,0.6-0.2,0.6-0.6c0-0.5-0.3-0.7-0.8-0.7H153V30h0.3V29z M153.3,28.8V28h0.5
		c0.2,0,0.5,0.1,0.5,0.3c0,0.4-0.3,0.4-0.6,0.4H153.3z"/>
</g>
<path class="st2" d="M177.9,0l-18.8,30.6h2.1L179.9,0H177.9z M128.4,80.6l-19.6,31.8h2.1l19.6-31.8H128.4z M187.2,0l-18.8,30.6h2.1
	L189.2,0H187.2z M118.1,112.5h2.1l19.6-31.8h-2.1L118.1,112.5z"/>
</svg>
