<?xml version="1.0" encoding="utf-8"?>
<!-- Generator: Adobe Illustrator 26.0.1, SVG Export Plug-In . SVG Version: 6.00 Build 0)  -->
<svg version="1.1" id="Layer_1" xmlns="http://www.w3.org/2000/svg" xmlns:xlink="http://www.w3.org/1999/xlink" x="0px" y="0px"
	 viewBox="0 0 400 111" style="enable-background:new 0 0 400 111;" xml:space="preserve">
<style type="text/css">
	.st0{fill:#FFC62F;}
	.st1{fill:#FAA61B;}
	.st2{fill:#FFFFFF;}
	.st3{fill:#EF3742;}
	.st4{fill:#7D65AC;}
</style>
<g>
	<path class="st0" d="M125.6,58.7l0.7,2.6h131.1v-2.6H125.6z"/>
	<path class="st1" d="M123.3,49.6l0.6,2.6h133.4v-2.6H123.3z"/>
	<g>
		<g>
			<path class="st1" d="M145.6,84.6h-3l-3.7-12.1l0.1,3.6v8.5h-3V67.4h4.3l3.7,12.1l3.7-12.1h4.3v17.2h-3v-8.5l0.1-3.6L145.6,84.6z"
				/>
		</g>
		<g>
			<path class="st1" d="M163.8,67.3l4.5,17.3h-3.2l-0.9-3.9h-4.9l-0.9,3.9h-3.2l4.5-17.3H163.8z M159.9,78.1h3.6l-1.8-7.4
				L159.9,78.1z"/>
		</g>
		<g>
			<path class="st1" d="M174.3,84.6h-3V67.4h5.4c2.7,0,5.8,0.8,5.8,5.2V73c0,2.8-1.2,4.1-2.8,4.7l2.8,6.9h-3.2l-2.5-6.4h-2.5V84.6z
				 M176.9,75.6c1.1,0,2.6-0.4,2.6-2.7v-0.2c0-2.3-1.5-2.7-2.6-2.7h-2.5v5.6H176.9z"/>
		</g>
		<g>
			<path class="st1" d="M193.6,67.3l4.5,17.3h-3.2l-0.9-3.9h-4.9l-0.9,3.9H185l4.5-17.3H193.6z M189.8,78.1h3.6l-1.8-7.4L189.8,78.1
				z"/>
		</g>
		<g>
			<path class="st1" d="M206.2,84.6h-3V70h-4.1v-2.6h11.2V70h-4.1V84.6z"/>
		</g>
		<g>
			<path class="st1" d="M225.1,67.4v17.2h-3v-7.5h-5.8v7.5h-3V67.4h3v7.1h5.8v-7.1H225.1z"/>
		</g>
		<g>
			<path class="st1" d="M228.8,76.4v-0.9c0-6,2.1-8.4,6.4-8.4c4.3,0,6.4,2.5,6.4,8.4v0.9c0,6-2.1,8.4-6.4,8.4
				C230.8,84.9,228.8,82.4,228.8,76.4z M235.2,82.3c2.4,0,3.2-2,3.2-5.9v-0.9c0-3.9-0.8-5.9-3.2-5.9H235c-2.4,0-3.2,2-3.2,5.9v0.9
				c0,3.9,0.8,5.9,3.2,5.9H235.2z"/>
		</g>
		<g>
			<path class="st1" d="M257.3,84.6h-3.1l-6.4-11.9l0.1,3.6v8.2h-2.8V67.4h3.1l6.4,11.9l-0.1-3.6v-8.2h2.8V84.6z"/>
		</g>
		<path class="st1" d="M260.7,80.9c1,0,1.8,0.8,1.8,1.8c0,1-0.8,1.8-1.8,1.8c-1,0-1.8-0.8-1.8-1.8S259.8,80.9,260.7,80.9z
			 M260.7,84.3c0.9,0,1.6-0.7,1.6-1.6c0-0.9-0.7-1.6-1.6-1.6c-0.9,0-1.6,0.7-1.6,1.6C259.2,83.6,259.9,84.3,260.7,84.3z M260.4,83.8
			h-0.4v-2.1h0.9c0.3,0,0.7,0.1,0.7,0.6v0c0,0.3-0.2,0.5-0.3,0.6l0.3,0.9h-0.4l-0.3-0.8h-0.5L260.4,83.8L260.4,83.8z M260.8,82.7
			c0.2,0,0.3-0.1,0.3-0.3v-0.1c0-0.3-0.2-0.3-0.3-0.3h-0.4v0.7L260.8,82.7z"/>
		<g>
			<path class="st2" d="M6,82.2h0.2c1.9,0,2.7-1.3,2.7-3.4h2.9v0.2c0,3.9-1.9,5.6-5.7,5.6c-4.1,0-6-2.4-6-8.1v-0.8
				c0-5.7,1.9-8.1,6-8.1c3.8,0,5.7,1.7,5.7,5.8v0.7H8.9c0-2.6-0.7-4-2.7-4H6c-2.3,0-3.1,1.9-3.1,5.6v0.8C2.9,80.3,3.6,82.2,6,82.2z"
				/>
			<path class="st2" d="M24,76.6v-0.8c0-5.7,2-8.1,6.1-8.1c4.1,0,6.1,2.4,6.1,8.1v0.8c0,5.7-2,8.1-6.1,8.1C26,84.7,24,82.3,24,76.6z
				 M30.2,82.2c2.3,0,3.1-1.9,3.1-5.6v-0.8c0-3.7-0.8-5.6-3.1-5.6H30c-2.3,0-3.1,1.9-3.1,5.6v0.8c0,3.7,0.8,5.6,3.1,5.6H30.2z"/>
			<path class="st2" d="M48.9,84.4V67.9h2.8v14h6.4v2.5H48.9z"/>
			<path class="st2" d="M79.8,67.9v2.5H73v4.4h5.8v2.5H73v7.2h-2.8V67.9H79.8z"/>
			<path class="st2" d="M98.6,67.8l4.3,16.6h-3l-0.9-3.8h-4.7l-0.9,3.8h-3.1l4.3-16.6H98.6z M94.9,78.2h3.4l-1.7-7.1L94.9,78.2z"/>
			<path class="st2" d="M118.4,75.9l-4.3-7.9h3.3l3,5.9l3-5.9h3.3l-4.3,7.9l4.3,8.6h-3.2l-3.1-6.6l-3.1,6.6h-3.2L118.4,75.9z"/>
		</g>
	</g>
	<path class="st3" d="M234.6,40.6V29.9h-6.6V16.8c0-2.6-0.8-4.7-2.3-6.1c-1.4-1.3-3.2-1.8-4.4-1.9V2.7h-1.3
		c-9.3,0-10.1,6.6-10.1,8.6v25.1h-3.4V21.4h-11.2v18.8h-5.3V21.6h-9.3v10h-3.4V11.9h-12.3v9.6h-9.2v17.7h-5v-15h-14.5v15.9h-11.5
		c0,0,0,0,0,0c-0.4,0.6-0.9,1.1-1.7,1.3c-0.5,0.2-1,0.3-1.7,0.3l0.2,0.9h17.2V26.8h9.3v15h10.1V24.1h9.2v-9.6h7.2v19.7h8.6v-10h4.1
		v18.7h10.4V24h6.1v14.9h8.6V11.3c0-2.5,1.1-5.5,6.2-6v6.1l1.4-0.1c0,0,2.3-0.1,3.9,1.3c1,0.9,1.5,2.3,1.5,4.2v15.7h6.6v10.6h25.3
		v-2.6H234.6z"/>
	<path class="st4" d="M145.1,22.1l-8.4-8.4l-11,11c0,0.4,0,0.8,0,1.3v2.3l11-11l7,6.9h3l11.1-11.1l7.2,7.2v-3.6l-7.2-7.2L145.1,22.1
		z M201.9,13.4l-3.1,3.1l-16-16l-11.4,11.4h3.6l7.8-7.8l16,16l3.1-3.1l4.4,4.4h0v0l1,1l2.4-2.4v-3.6l-2.4,2.4L201.9,13.4z M239.9,16
		l-6.9,6.9l-5-5v3.6l5,5l6.9-6.9l17.4,17.4v-3.6L239.9,16z"/>
	<g>
		<path class="st2" d="M0.4,18.7h10.3c1.5,0,2.7,0.2,3.6,0.6c0.9,0.4,1.5,0.9,2,1.6c0.4,0.6,0.7,1.4,0.8,2.2
			c0.1,0.8,0.2,1.7,0.2,2.5v28.3c0,1.4-0.1,2.6-0.3,3.5c-0.2,0.9-0.5,1.7-1,2.3c-0.5,0.6-1.1,1-1.8,1.2c-0.8,0.2-1.7,0.4-2.8,0.4
			H0.4V18.7z M6,23.9v32h3.8c0.8,0,1.3-0.2,1.5-0.7c0.2-0.4,0.3-1,0.3-1.7V26.8c0-0.8-0.1-1.5-0.3-2.1c-0.2-0.6-0.9-0.9-2-0.9H6z"/>
		<path class="st2" d="M24.1,18.7h14V24h-8.3v12.4h7.5v5.2h-7.5v14.2h8.4v5.4H24.1V18.7z"/>
		<path class="st2" d="M89.2,18.7h14V24H95v12.4h7.5v5.2H95v14.2h8.4v5.4H89.2V18.7z"/>
		<polygon class="st2" points="55.9,18.7 55.9,43.4 48.6,18.7 43.4,18.7 43.4,61.2 48.6,61.2 48.6,36.8 55.9,61.2 61.1,61.2 
			61.1,18.7 		"/>
		<polygon class="st2" points="80.2,18.7 75.4,46.4 70.5,18.7 64.8,18.7 72.7,61.2 72.7,61.2 78,61.2 78,61.2 85.9,18.7 		"/>
		<path class="st2" d="M126.2,61.2l-4.8-19.3c0.7-0.1,1.2-0.2,1.7-0.3c0.8-0.3,1.3-0.7,1.7-1.3c0.4-0.6,0.6-1.4,0.7-2.4
			c0.1-1,0.1-2.2,0.1-3.7V26c0-1.1,0-2.1-0.1-3c-0.1-0.9-0.3-1.7-0.7-2.3c-0.4-0.6-1-1.1-1.7-1.4c-0.8-0.3-1.8-0.5-3.2-0.5h-11v42.5
			h5.5V41.9h1.7l4.6,19.3H126.2z M114.4,23.9h3.5c0.9,0,1.5,0.2,1.8,0.5c0.2,0.3,0.4,0.9,0.4,1.6v8.9c0,0.8-0.2,1.3-0.5,1.6
			c-0.3,0.2-0.8,0.4-1.5,0.4h-3.6V23.9z"/>
	</g>
	<g>
		<g>
			<g>
				<path class="st2" d="M154.1,100.7c0,0.1-0.1,0.3-0.3,0.5c-0.6,0.8-2,2.1-2,5.5c0,1.7,0.3,2.5,0.3,3.3c0,0.4-0.1,0.6-0.3,0.6
					c-0.4,0-1.2-1.8-1.2-4c0-4.6,2.9-5.9,3.4-5.9C154,100.6,154.1,100.6,154.1,100.7z M146.7,100.6c0.4,0,3.4,1.3,3.4,5.9
					c0,2.2-0.7,4-1.2,4c-0.2,0-0.3-0.2-0.3-0.6c0-0.8,0.3-1.5,0.3-3.3c0-3.4-1.4-4.7-2-5.5c-0.2-0.2-0.3-0.4-0.3-0.5
					C146.6,100.6,146.6,100.6,146.7,100.6z"/>
				<g>
					<path class="st2" d="M149.3,101.5c0,0.6,0.5,1.1,1.1,1.1c0.6,0,1.1-0.5,1.1-1.1c0-0.6-0.5-1.1-1.1-1.1
						C149.7,100.4,149.3,100.9,149.3,101.5z"/>
				</g>
				<path class="st2" d="M159.4,108.3c-1.5-0.9-3.8-1.9-7.1-2.2c0,0,0,0.3,0,0.5c0,0.1,0,0.3,0,0.3
					C155.5,107.2,157.8,107.8,159.4,108.3C159.4,108.4,159.5,108.4,159.4,108.3C159.5,108.4,159.5,108.4,159.4,108.3
					C159.5,108.4,159.5,108.4,159.4,108.3z M152.1,95.9c-0.3-0.2-0.5-0.6-0.3-1.1c0.2-0.5,0.6-0.9,1-1c0.3,0.3,0.4,0.9,0.2,1.4
					C152.8,95.7,152.4,95.9,152.1,95.9z M154.5,97.9c-0.1-0.3-0.1-0.7,0.3-1.1c0.4-0.3,0.9-0.5,1.3-0.3c0.1,0.4-0.2,0.9-0.6,1.2
					C155.2,98.1,154.8,98.1,154.5,97.9z M154.6,101c0.1-0.3,0.3-0.6,0.8-0.7c0.5-0.1,1,0.1,1.3,0.4c-0.2,0.4-0.6,0.7-1.1,0.7
					C155,101.6,154.8,101.3,154.6,101z M153.7,102.1c0.2-0.2,0.4-0.4,0.9-0.4c0.4,0.1,0.8,0.4,1,0.7c-0.2,0.3-0.7,0.4-1.2,0.3
					C153.9,102.7,153.8,102.4,153.7,102.1z M151,99.2c-0.3-0.3-0.6-0.7-0.4-1.3c0.2-0.6,0.7-1.1,1.2-1.2c0.3,0.4,0.4,1.1,0.3,1.7
					C151.9,99,151.4,99.2,151,99.2z M152.2,99.9c-0.1-0.4-0.1-0.8,0.4-1.2c0.4-0.4,1-0.5,1.5-0.4c0.1,0.5-0.2,1-0.6,1.4
					C153,100.1,152.5,100.1,152.2,99.9z M153,97.4c-0.2-0.4-0.4-0.8,0-1.4c0.4-0.5,1-0.9,1.5-0.9c0.2,0.5,0.1,1.2-0.2,1.7
					C153.9,97.4,153.4,97.5,153,97.4z M154.5,99.6c0-0.4,0.1-0.8,0.7-1.1c0.6-0.3,1.2-0.2,1.6,0c-0.1,0.5-0.5,1-1,1.2
					C155.3,100,154.8,99.8,154.5,99.6z M149.5,95.1c0-0.7,0.3-1.5,0.9-1.8c0.5,0.3,0.9,1,0.9,1.8c0,0.8-0.4,1.2-0.9,1.4
					C149.9,96.2,149.5,95.9,149.5,95.1z M141.2,108.4C141.2,108.4,141.2,108.4,141.2,108.4c0,0,0.1,0,0.1,0c1.6-0.6,3.9-1.3,7.1-1.5
					c0,0,0-0.2,0-0.3c0-0.2,0-0.5,0-0.5C145.1,106.4,142.8,107.4,141.2,108.4C141.2,108.4,141.2,108.4,141.2,108.4z M147.7,95.2
					c-0.2-0.5-0.1-1.1,0.2-1.4c0.4,0.1,0.8,0.5,1,1c0.2,0.5,0,0.9-0.3,1.1C148.3,95.9,147.9,95.7,147.7,95.2z M145.1,97.8
					c-0.4-0.3-0.6-0.8-0.6-1.2c0.4-0.1,0.9,0,1.3,0.3c0.4,0.3,0.4,0.7,0.3,1.1C145.8,98.1,145.5,98.1,145.1,97.8z M145.1,101.5
					c-0.5-0.1-1-0.3-1.1-0.7c0.3-0.3,0.8-0.5,1.3-0.4c0.5,0.1,0.7,0.4,0.8,0.7C145.9,101.3,145.6,101.6,145.1,101.5z M146.3,102.8
					c-0.4,0.1-0.9,0-1.2-0.3c0.1-0.3,0.5-0.6,1-0.7c0.5-0.1,0.7,0.1,0.9,0.4C146.9,102.4,146.7,102.7,146.3,102.8z M148.6,98.3
					c-0.2-0.6-0.1-1.3,0.3-1.7c0.5,0.1,1,0.6,1.2,1.2c0.2,0.6-0.1,1.1-0.4,1.3C149.2,99.2,148.8,99,148.6,98.3z M147.2,99.7
					c-0.4-0.4-0.7-0.9-0.6-1.4c0.4-0.1,1,0,1.5,0.4c0.5,0.4,0.5,0.8,0.4,1.2C148.1,100.1,147.7,100.1,147.2,99.7z M146.4,96.8
					c-0.4-0.5-0.4-1.2-0.2-1.7c0.5,0,1.1,0.4,1.5,0.9c0.4,0.6,0.2,1.1,0,1.4C147.3,97.5,146.8,97.4,146.4,96.8z M144.8,99.8
					c-0.6-0.3-1-0.8-1-1.2c0.4-0.3,1.1-0.3,1.6,0c0.6,0.3,0.7,0.7,0.7,1.1C145.8,99.8,145.4,100,144.8,99.8z"/>
			</g>
			<path class="st2" d="M178.3,106.1v-4.3c0-0.6-0.1-1.7-0.1-1.9h1.3l0.1,0.9h0c0.2-0.2,0.7-1,1.8-1c1.4,0,2.2,1,2.2,2.3v4h-1.5
				v-3.7c0-0.8-0.4-1.4-1.2-1.4c-0.8,0-1.2,0.6-1.2,1.4v3.7H178.3z M169.7,100h-1.5v6.2h1.5V100z M190.7,106.1c0-0.3-0.2-1.3-0.2-2
				v-4c-0.2-0.1-1.1-0.3-2-0.3c-2.5,0-3.6,1.7-3.6,3.5c0,1.7,0.8,3,2.4,3c1.2,0,1.7-0.8,1.9-1.2h0c0,0.2,0.1,0.8,0.1,1H190.7z
				 M189,103.1c0,1.4-0.6,2-1.4,2c-0.8,0-1.3-0.7-1.3-1.9c0-1.2,0.7-2.2,2-2.2c0.3,0,0.5,0,0.6,0.1V103.1z M166.7,104.6
				c-0.4,0.2-1,0.3-1.7,0.3c-1.7,0-2.9-1.2-2.9-3.1c0-1.8,1.2-3.1,2.9-3.1c0.8,0,1.4,0.2,1.7,0.3v-1.3c-0.4-0.1-1-0.3-1.8-0.3
				c-2.6,0-4.4,1.8-4.4,4.3c0,2.4,1.6,4.3,4.4,4.3c0.8,0,1.4-0.1,1.8-0.3V104.6z M175.2,105.4v0.5c0,1.3-0.8,1.8-1.7,1.8
				c-0.9,0-1.5-0.3-1.7-0.3v1.2c0.2,0,0.9,0.3,1.9,0.3c1.8,0,3-0.7,3-3.3v-5.4c-0.2-0.1-1.1-0.3-2-0.3c-2.5,0-3.6,1.7-3.6,3.5
				c0,1.7,0.8,3,2.4,3C174.5,106.3,175,105.6,175.2,105.4L175.2,105.4z M175.1,103.1c0,1.4-0.6,2-1.4,2c-0.8,0-1.3-0.7-1.3-1.9
				c0-1.2,0.7-2.2,2-2.2c0.3,0,0.5,0,0.6,0.1V103.1z M168,98.4c0,0.5,0.4,0.9,0.9,0.9c0.5,0,0.9-0.4,0.9-0.9c0-0.5-0.4-0.9-0.9-0.9
				C168.4,97.5,168,97.9,168,98.4z"/>
		</g>
		<g>
			<path class="st2" d="M193.4,105.9c-0.2,0.2-0.4,0.2-0.6,0.2c-0.2,0-0.4-0.1-0.6-0.2c-0.2-0.2-0.2-0.4-0.2-0.6
				c0-0.2,0.1-0.4,0.2-0.6c0.2-0.2,0.4-0.2,0.6-0.2c0.2,0,0.4,0.1,0.6,0.2c0.2,0.2,0.2,0.4,0.2,0.6
				C193.7,105.6,193.6,105.8,193.4,105.9z M192.3,104.8c-0.1,0.1-0.2,0.3-0.2,0.5c0,0.2,0.1,0.4,0.2,0.5c0.1,0.1,0.3,0.2,0.5,0.2
				c0.2,0,0.4-0.1,0.5-0.2c0.1-0.1,0.2-0.3,0.2-0.5c0-0.2-0.1-0.4-0.2-0.5c-0.1-0.1-0.3-0.2-0.5-0.2
				C192.6,104.6,192.5,104.7,192.3,104.8z M192.8,104.9c0.1,0,0.2,0,0.2,0c0.1,0,0.1,0.1,0.1,0.2c0,0.1,0,0.1-0.1,0.2
				c0,0-0.1,0-0.1,0c0.1,0,0.1,0,0.2,0.1c0,0,0,0.1,0,0.1v0.1c0,0,0,0,0,0.1c0,0,0,0,0,0l0,0h-0.1c0,0,0,0,0,0c0,0,0,0,0,0l0,0v-0.1
				c0-0.1,0-0.2-0.1-0.2c0,0-0.1,0-0.2,0h-0.1v0.4h-0.2v-0.9H192.8z M193,105c0,0-0.1,0-0.2,0h-0.1v0.3h0.1c0.1,0,0.1,0,0.2,0
				c0.1,0,0.1-0.1,0.1-0.1C193.1,105.1,193,105,193,105z"/>
		</g>
	</g>
	<g>
		<path class="st2" d="M68.1,103.7H67v2.2h-1.1v-5.7h2.2c1.2,0,1.9,0.8,1.9,1.8C70,102.9,69.3,103.7,68.1,103.7z M68.1,101.1h-1v1.6
			h1c0.5,0,0.8-0.3,0.8-0.8C68.9,101.4,68.6,101.1,68.1,101.1z"/>
		<path class="st2" d="M74.9,105.8l-1.1-2.3H73v2.3h-1.1v-5.7h2.2c1.2,0,1.9,0.8,1.9,1.8c0,0.8-0.5,1.3-1,1.5l1.3,2.5H74.9z
			 M74,101.1H73v1.5H74c0.5,0,0.8-0.3,0.8-0.8S74.5,101.1,74,101.1z"/>
		<path class="st2" d="M78.1,105.8v-5.7h3.8v1h-2.7v1.3h2.3v1h-2.3v1.4h2.7v1H78.1z"/>
		<path class="st2" d="M85.4,105.9c-0.9,0-1.5-0.2-2.1-0.8l0.7-0.7c0.4,0.4,0.9,0.5,1.4,0.5c0.7,0,1-0.2,1-0.7
			c0-0.2-0.1-0.4-0.2-0.5c-0.1-0.1-0.2-0.2-0.5-0.2l-0.7-0.1c-0.5-0.1-0.9-0.2-1.1-0.5c-0.3-0.3-0.4-0.6-0.4-1.1c0-1,0.8-1.7,2-1.7
			c0.8,0,1.4,0.2,1.8,0.7l-0.7,0.7c-0.4-0.3-0.8-0.4-1.2-0.4c-0.6,0-0.9,0.3-0.9,0.7c0,0.1,0,0.3,0.2,0.4c0.1,0.1,0.3,0.2,0.5,0.2
			l0.7,0.1c0.5,0.1,0.9,0.2,1.1,0.4c0.3,0.3,0.4,0.7,0.4,1.2C87.5,105.3,86.6,105.9,85.4,105.9z"/>
		<path class="st2" d="M89.5,105.8v-5.7h3.8v1h-2.7v1.3h2.3v1h-2.3v1.4h2.7v1H89.5z"/>
		<path class="st2" d="M98.7,105.8l-2.3-3.5v3.5h-1.1v-5.7h1l2.3,3.5v-3.5h1.1v5.7H98.7z"/>
		<path class="st2" d="M104.1,101.1v4.7H103v-4.7h-1.5v-1h4.1v1H104.1z"/>
		<path class="st2" d="M107.5,105.8v-5.7h3.8v1h-2.7v1.3h2.3v1h-2.3v1.4h2.7v1H107.5z"/>
		<path class="st2" d="M116.8,105.3c-0.4,0.4-0.9,0.5-1.5,0.5h-2.1v-5.7h2.1c0.6,0,1.1,0.2,1.5,0.5c0.6,0.6,0.6,1.4,0.6,2.3
			C117.4,103.8,117.5,104.6,116.8,105.3z M116,101.5c-0.2-0.2-0.4-0.4-0.8-0.4h-0.8v3.7h0.8c0.4,0,0.6-0.1,0.8-0.4
			c0.2-0.3,0.2-0.7,0.2-1.5C116.3,102.1,116.2,101.7,116,101.5z"/>
		<path class="st2" d="M124.6,105.8h-2.4v-5.7h2.3c1.1,0,1.8,0.6,1.8,1.6c0,0.6-0.4,1-0.7,1.2c0.3,0.2,0.8,0.5,0.8,1.3
			C126.4,105.3,125.7,105.8,124.6,105.8z M124.5,101.1h-1.1v1.3h1.1c0.5,0,0.7-0.3,0.7-0.7S124.9,101.1,124.5,101.1z M124.5,103.4
			h-1.2v1.4h1.2c0.5,0,0.7-0.3,0.7-0.7S125,103.4,124.5,103.4z"/>
		<path class="st2" d="M130.7,103.5v2.3h-1.1v-2.3l-1.7-3.4h1.2l1.1,2.3l1.1-2.3h1.2L130.7,103.5z"/>
	</g>
</g>
</svg>
