<?xml version="1.0" encoding="utf-8"?>
<!-- Generator: Adobe Illustrator 25.4.1, SVG Export Plug-In . SVG Version: 6.00 Build 0)  -->
<svg version="1.1" id="Layer_1" xmlns="http://www.w3.org/2000/svg" xmlns:xlink="http://www.w3.org/1999/xlink" x="0px" y="0px"
	 viewBox="0 0 300 57" style="enable-background:new 0 0 300 57;" xml:space="preserve">
<style type="text/css">
	.st0{fill:#FFFFFF;}
	.st1{fill:#E0E322;}
	.st2{fill:#929497;}
</style>
<g>
	<path class="st0" d="M59.7,40.8l-9.9,16.1h1l9.9-16.1H59.7z M80,0l-9.5,15.5h1L81.1,0H80z M84.7,0l-9.5,15.5h1L85.8,0H84.7z
		 M55,40.8l-9.9,16.1h1L56,40.8H55z M89.4,0l-9.5,15.5h1L90.4,0H89.4z M54.4,56.9h1l9.9-16.1h-1L54.4,56.9z"/>
	<g>
		<g>
			<path class="st1" d="M94.8,36.3H92l-3.5-11.6l0.1,3.4v8.2h-2.9V19.7h4.2l3.5,11.6l3.5-11.6h4.2v16.6h-2.9v-8.2l0.1-3.4L94.8,36.3
				z"/>
		</g>
		<g>
			<path class="st1" d="M112.3,19.6l4.4,16.6h-3.1l-0.9-3.8H108l-0.9,3.8H104l4.4-16.6H112.3z M108.6,30h3.5l-1.7-7.1L108.6,30z"/>
		</g>
		<g>
			<path class="st1" d="M122.5,36.3h-2.9V19.7h5.2c2.6,0,5.5,0.8,5.5,5v0.4c0,2.6-1.2,3.9-2.7,4.6l2.7,6.6h-3.1l-2.4-6.2h-2.4
				L122.5,36.3L122.5,36.3z M124.9,27.6c1.1,0,2.5-0.4,2.5-2.6v-0.2c0-2.2-1.4-2.6-2.5-2.6h-2.4v5.4L124.9,27.6L124.9,27.6z"/>
		</g>
		<g>
			<path class="st1" d="M141,19.6l4.4,16.6h-3.1l-0.9-3.8h-4.7l-0.9,3.8h-3.1l4.4-16.6H141z M137.3,30h3.5l-1.7-7.1L137.3,30z"/>
		</g>
		<g>
			<path class="st1" d="M153.1,36.3h-2.9V22.2h-3.9v-2.5H157v2.5h-3.9L153.1,36.3L153.1,36.3z"/>
		</g>
		<g>
			<path class="st1" d="M171.4,19.7v16.6h-2.9V29h-5.6v7.2H160V19.7h2.9v6.9h5.6v-6.8H171.4z"/>
		</g>
		<g>
			<path class="st1" d="M174.9,28.4v-0.8c0-5.8,2-8.1,6.1-8.1c4.1,0,6.1,2.4,6.1,8.1v0.8c0,5.7-2,8.1-6.1,8.1S174.9,34.2,174.9,28.4
				z M181.1,34.1c2.3,0,3.1-1.9,3.1-5.6v-0.8c0-3.7-0.8-5.6-3.1-5.6h-0.2c-2.3,0-3.1,1.9-3.1,5.6v0.8c0,3.7,0.8,5.6,3.1,5.6H181.1z"
				/>
		</g>
		<g>
			<path class="st1" d="M202.3,36.3h-3l-6.1-11.4l0.1,3.5v7.9h-2.7V19.8h3l6.1,11.4l-0.1-3.5v-7.9h2.7V36.3z"/>
		</g>
	</g>
	<g>
		<path class="st0" d="M5.5,35.9h0.2c2.8,0,4-1.7,4-4.8h0.9v0.2c0,3.4-1.6,5.4-5.1,5.4c-3.7,0-5.5-2.4-5.5-8.2v-0.9
			c0-5.9,1.9-8.2,5.5-8.2c3.5,0,5.1,2.1,5.1,5.8v0.5H9.7c0-3.9-1.2-5.4-4-5.4H5.5c-3,0-4.6,2.1-4.6,7.4v0.9
			C0.9,33.9,2.4,35.9,5.5,35.9z"/>
		<path class="st0" d="M14.6,28.5v-0.9c0-5.9,1.9-8.2,5.5-8.2s5.5,2.4,5.5,8.2v0.9c0.1,5.9-1.8,8.2-5.5,8.2
			C16.5,36.8,14.6,34.4,14.6,28.5z M20.3,35.9c3.1,0,4.6-2.1,4.6-7.4v-0.9c0-5.3-1.5-7.4-4.6-7.4h-0.2c-3.1,0-4.6,2.1-4.6,7.4v0.9
			c0,5.3,1.5,7.4,4.6,7.4H20.3z"/>
		<path class="st0" d="M30.4,36.6V19.7h0.9v16h7.5v0.8H30.4z"/>
		<path class="st0" d="M51,19.7v0.8h-7.8v7h6.7v0.8h-6.7v8.2h-0.9V19.7H51z"/>
		<path class="st0" d="M59.3,19.5l5.1,17.1h-0.9L62.1,32h-6.9l-1.4,4.6H53l5.1-17.1C58.1,19.5,59.3,19.5,59.3,19.5z M55.4,31.2h6.4
			l-3.2-10.8L55.4,31.2z"/>
		<path class="st0" d="M72.6,28.1l-5.2-8.4h1l4.7,7.7l4.7-7.7h1l-5.2,8.4l5.2,8.5h-1l-4.7-7.7l-4.7,7.7h-1L72.6,28.1z"/>
	</g>
	<g>
		<path class="st1" d="M205.4,32.8c1,0,1.8,0.8,1.8,1.8s-0.8,1.8-1.8,1.8s-1.8-0.8-1.8-1.8C203.6,33.6,204.4,32.8,205.4,32.8z
			 M205.4,36.1c0.8,0,1.5-0.7,1.5-1.5c0-0.8-0.7-1.5-1.5-1.5c-0.8,0-1.5,0.7-1.5,1.5C203.9,35.4,204.5,36.1,205.4,36.1z M205,35.6
			h-0.4v-2h0.9c0.3,0,0.7,0.1,0.7,0.6l0,0c0,0.3-0.2,0.5-0.3,0.6l0.3,0.8h-0.4l-0.3-0.8H205V35.6L205,35.6z M205.4,34.5
			c0.2,0,0.3,0,0.3-0.3v0c0-0.3-0.2-0.3-0.3-0.3H205v0.7C205,34.5,205.4,34.5,205.4,34.5z"/>
	</g>
	<g>
		<polygon class="st2" points="66.6,8.2 71.7,0 70.6,0 65.5,8.2 		"/>
		<polygon class="st2" points="45.6,40.8 35.7,56.9 36.7,56.9 46.6,40.8 		"/>
		<polygon class="st2" points="40.4,56.9 41.4,56.9 51.3,40.8 50.3,40.8 		"/>
		<polygon class="st2" points="75.3,0 65.8,15.5 66.8,15.5 76.3,0 		"/>
	</g>
	<g>
		<path class="st2" d="M4.3,5H1.1v10.7h3.2c3.1,0,4.4-1.5,4.4-5.1v-0.5C8.7,6.5,7.4,5,4.3,5z M6.8,10.1v0.5C6.8,13,6,14,4.2,14H3
			V6.7h1.2C6,6.7,6.8,7.7,6.8,10.1z"/>
		<polygon class="st2" points="19.2,6.7 19.2,5 12.9,5 12.9,15.7 19.2,15.7 19.2,14 14.8,14 14.8,11.1 18.6,11.1 18.6,9.4 14.8,9.4 
			14.8,6.7 		"/>
		<polygon class="st2" points="29.2,5 29.2,10.1 29.3,12.2 25.4,5 23.4,5 23.4,15.7 25.2,15.7 25.2,10.6 25.2,8.5 29,15.7 31,15.7 
			31,5 		"/>
		<polygon class="st2" points="40.6,5 38.6,13.5 36.5,5 34.5,5 37.3,15.7 39.8,15.7 42.7,5 		"/>
		<polygon class="st2" points="52.5,6.7 52.5,5 46.1,5 46.1,15.7 52.5,15.7 52.5,14 48,14 48,11.1 51.8,11.1 51.8,9.4 48,9.4 
			48,6.7 		"/>
		<path class="st2" d="M61.5,11.4c1.1-0.5,1.7-1.4,1.7-2.9V8.2c0-2.2-1.2-3.2-3.6-3.2h-3.4v10.7h1.9v-4h1.5l1.5,4h2L61.5,11.4z
			 M61.3,8.3v0.1c0,1.1-0.5,1.6-1.6,1.6h-1.5V6.7h1.5C60.8,6.7,61.3,7.2,61.3,8.3z"/>
	</g>
</g>
</svg>
