<?xml version="1.0" encoding="utf-8"?>
<!-- Generator: Adobe Illustrator 25.4.1, SVG Export Plug-In . SVG Version: 6.00 Build 0)  -->
<svg version="1.1" id="Layer_1" xmlns="http://www.w3.org/2000/svg" xmlns:xlink="http://www.w3.org/1999/xlink" x="0px" y="0px"
	 viewBox="0 0 135.8 57" style="enable-background:new 0 0 135.8 57;" xml:space="preserve">
<style type="text/css">
	.st0{fill:#FFC62F;}
	.st1{fill:#FAA61B;}
	.st2{fill:#FFFFFF;}
	.st3{fill:#EF3742;}
	.st4{fill:#7D65AC;}
</style>
<g>
	<path class="st0" d="M65,30.1l0.3,1.3h67.8v-1.3H65z"/>
	<path class="st1" d="M63.8,25.5l0.3,1.3h69v-1.3H63.8z"/>
	<g>
		<g>
			<path class="st1" d="M75.3,43.5h-1.5l-1.9-6.2l0,1.8v4.4h-1.5v-8.9h2.2l1.9,6.3l1.9-6.3h2.2v8.9h-1.5v-4.4l0-1.8L75.3,43.5z"/>
		</g>
		<g>
			<path class="st1" d="M84.7,34.6l2.3,8.9h-1.6l-0.5-2h-2.5l-0.5,2h-1.7l2.3-8.9H84.7z M82.7,40.2h1.9l-0.9-3.8L82.7,40.2z"/>
		</g>
		<g>
			<path class="st1" d="M90.2,43.5h-1.5v-8.9h2.8c1.4,0,3,0.4,3,2.7v0.2c0,1.4-0.6,2.1-1.4,2.4l1.4,3.6h-1.7l-1.3-3.3h-1.3V43.5z
				 M91.5,38.9c0.6,0,1.4-0.2,1.4-1.4v-0.1c0-1.2-0.8-1.4-1.4-1.4h-1.3v2.9H91.5z"/>
		</g>
		<g>
			<path class="st1" d="M100.1,34.6l2.3,8.9h-1.6l-0.5-2h-2.5l-0.5,2h-1.7l2.3-8.9H100.1z M98.2,40.2h1.9l-0.9-3.8L98.2,40.2z"/>
		</g>
		<g>
			<path class="st1" d="M106.6,43.5h-1.5V36H103v-1.3h5.8V36h-2.1V43.5z"/>
		</g>
		<g>
			<path class="st1" d="M116.4,34.6v8.9h-1.5v-3.9h-3v3.9h-1.5v-8.9h1.5v3.7h3v-3.7H116.4z"/>
		</g>
		<g>
			<path class="st1" d="M118.3,39.3v-0.5c0-3.1,1.1-4.4,3.3-4.4c2.2,0,3.3,1.3,3.3,4.4v0.5c0,3.1-1.1,4.4-3.3,4.4
				C119.4,43.7,118.3,42.4,118.3,39.3z M121.7,42.4c1.2,0,1.7-1,1.7-3v-0.5c0-2-0.4-3-1.7-3h-0.1c-1.2,0-1.7,1-1.7,3v0.5
				c0,2,0.4,3,1.7,3H121.7z"/>
		</g>
		<g>
			<path class="st1" d="M133.1,43.5h-1.6l-3.3-6.1l0,1.9v4.3h-1.4v-8.9h1.6l3.3,6.1l0-1.9v-4.3h1.4V43.5z"/>
		</g>
		<path class="st1" d="M134.9,41.6c0.5,0,0.9,0.4,0.9,0.9s-0.4,0.9-0.9,0.9s-0.9-0.4-0.9-0.9S134.4,41.6,134.9,41.6z M134.9,43.4
			c0.4,0,0.8-0.4,0.8-0.8c0-0.4-0.4-0.8-0.8-0.8c-0.4,0-0.8,0.4-0.8,0.8C134.1,43,134.4,43.4,134.9,43.4z M134.7,43.1h-0.2v-1.1h0.5
			c0.2,0,0.4,0.1,0.4,0.3v0c0,0.2-0.1,0.2-0.2,0.3l0.2,0.4h-0.2l-0.1-0.4h-0.2L134.7,43.1L134.7,43.1z M134.9,42.6
			c0.1,0,0.2,0,0.2-0.2v0c0-0.1-0.1-0.2-0.2-0.2h-0.2v0.4L134.9,42.6z"/>
		<g>
			<path class="st2" d="M3.1,42.3L3.1,42.3c1.1,0,1.5-0.7,1.5-1.7h1.5v0.1c0,2-1,2.9-2.9,2.9C1,43.6,0,42.4,0,39.4V39
				c0-3,1-4.2,3.1-4.2c2,0,2.9,0.9,2.9,3v0.4H4.6c0-1.4-0.3-2.1-1.4-2.1H3.1c-1.2,0-1.6,1-1.6,2.9v0.4C1.5,41.3,1.9,42.3,3.1,42.3z"
				/>
			<path class="st2" d="M12.4,39.4V39c0-3,1-4.2,3.2-4.2c2.1,0,3.2,1.2,3.2,4.2v0.4c0,3-1,4.2-3.2,4.2
				C13.4,43.6,12.4,42.4,12.4,39.4z M15.6,42.3c1.2,0,1.6-1,1.6-2.9V39c0-1.9-0.4-2.9-1.6-2.9h-0.1c-1.2,0-1.6,1-1.6,2.9v0.4
				C13.9,41.3,14.3,42.3,15.6,42.3L15.6,42.3z"/>
			<path class="st2" d="M25.3,43.5v-8.5h1.5v7.3H30v1.3H25.3z"/>
			<path class="st2" d="M41.3,34.9v1.3h-3.5v2.3h3v1.3h-3v3.7h-1.5v-8.5H41.3z"/>
			<path class="st2" d="M51,34.9l2.2,8.6h-1.6l-0.5-1.9h-2.4l-0.5,1.9h-1.6l2.2-8.6H51z M49.1,40.2h1.8L50,36.6L49.1,40.2z"/>
			<path class="st2" d="M61.3,39l-2.2-4.1h1.7l1.5,3.1l1.5-3.1h1.7L63.4,39l2.2,4.4h-1.6l-1.6-3.4l-1.6,3.4h-1.6L61.3,39z"/>
		</g>
	</g>
	<path class="st3" d="M121.3,20.8v-5.5h-3.4V8.5c0-1.4-0.4-2.4-1.2-3.2c-0.7-0.7-1.7-0.9-2.3-1V1.2h-0.7c-4.8,0-5.2,3.4-5.2,4.4v13
		h-1.8v-7.7H101v9.7h-2.7V11h-4.8v5.2h-1.8V6h-6.4v5h-4.8v9.1H78v-7.8h-7.5v8.2h-5.9c0,0,0,0,0,0c-0.2,0.3-0.5,0.6-0.9,0.7
		c-0.2,0.1-0.5,0.1-0.9,0.2l0.1,0.4h8.9v-8.2h4.8v7.8h5.2v-9.1h4.8v-5h3.7v10.2h4.4v-5.2h2.1v9.7h5.4v-9.7h3.2v7.7h4.4V5.6
		c0-1.3,0.6-2.9,3.2-3.1v3.2l0.7-0.1c0,0,1.2-0.1,2,0.7c0.5,0.5,0.8,1.2,0.8,2.2v8.1h3.4v5.5h13.1v-1.3H121.3z"/>
	<path class="st4" d="M75,11.2l-4.4-4.4L65,12.6c0,0.2,0,0.4,0,0.7v1.2l5.7-5.7l3.6,3.6h1.5l5.8-5.8l3.7,3.7V8.4l-3.7-3.7L75,11.2z
		 M104.4,6.7l-1.6,1.6l-8.3-8.3L88.6,6h1.9l4.1-4.1l8.3,8.3l1.6-1.6l2.3,2.3h0v0l0.5,0.5l1.3-1.3V8.3l-1.3,1.3L104.4,6.7z
		 M124.1,8.1l-3.6,3.6l-2.6-2.6V11l2.6,2.6l3.6-3.6l9,9v-1.9L124.1,8.1z"/>
	<g>
		<path class="st2" d="M0.2,9.4h5.3c0.8,0,1.4,0.1,1.8,0.3c0.5,0.2,0.8,0.5,1,0.8s0.4,0.7,0.4,1.1c0.1,0.4,0.1,0.9,0.1,1.3v14.6
			c0,0.7-0.1,1.3-0.2,1.8c-0.1,0.5-0.3,0.9-0.5,1.2c-0.2,0.3-0.6,0.5-1,0.6c-0.4,0.1-0.9,0.2-1.5,0.2H0.2V9.4z M3.1,12.2v16.6h2
			c0.4,0,0.7-0.1,0.8-0.3C5.9,28.2,6,27.9,6,27.5V13.7c0-0.4-0.1-0.8-0.2-1.1c-0.1-0.3-0.5-0.5-1-0.5H3.1z"/>
		<path class="st2" d="M12.4,9.4h7.3v2.8h-4.3v6.4h3.9v2.7h-3.9v7.3h4.3v2.8h-7.3V9.4z"/>
		<path class="st2" d="M46.2,9.4h7.3v2.8h-4.3v6.4H53v2.7h-3.9v7.3h4.3v2.8h-7.3V9.4z"/>
		<polygon class="st2" points="28.9,9.4 28.9,22.2 25.2,9.4 22.4,9.4 22.4,31.4 25.2,31.4 25.2,18.8 28.9,31.4 31.6,31.4 31.6,9.4 
					"/>
		<polygon class="st2" points="41.5,9.4 39,23.8 36.5,9.4 33.5,9.4 37.6,31.4 37.6,31.4 40.3,31.4 40.3,31.4 44.4,9.4 		"/>
		<path class="st2" d="M65.3,31.4l-2.5-10c0.3,0,0.6-0.1,0.9-0.2c0.4-0.1,0.7-0.4,0.9-0.7c0.2-0.3,0.3-0.7,0.4-1.3
			c0.1-0.5,0.1-1.2,0.1-1.9v-4.2c0-0.6,0-1.1-0.1-1.6c-0.1-0.5-0.2-0.9-0.4-1.2c-0.2-0.3-0.5-0.6-0.9-0.7c-0.4-0.2-0.9-0.2-1.6-0.2
			h-5.7v22h2.8v-10h0.9l2.4,10H65.3z M59.2,12.2H61c0.5,0,0.8,0.1,0.9,0.3c0.1,0.2,0.2,0.5,0.2,0.9v4.6c0,0.4-0.1,0.7-0.3,0.8
			c-0.2,0.1-0.4,0.2-0.8,0.2h-1.9V12.2z"/>
	</g>
	<g>
		<g>
			<g>
				<path class="st2" d="M79.7,51.9c0,0.1-0.1,0.1-0.2,0.3c-0.3,0.4-1,1.1-1,2.8c0,0.9,0.1,1.3,0.1,1.7c0,0.2,0,0.3-0.1,0.3
					c-0.2,0-0.6-1-0.6-2.1C77.9,52.5,79.4,51.8,79.7,51.9C79.7,51.8,79.7,51.8,79.7,51.9z M75.9,51.8c0.2,0,1.7,0.7,1.7,3.1
					c0,1.1-0.4,2.1-0.6,2.1c-0.1,0-0.1-0.1-0.1-0.3c0-0.4,0.1-0.8,0.1-1.7c0-1.7-0.7-2.4-1-2.8C75.9,52,75.8,51.9,75.9,51.8
					C75.8,51.8,75.8,51.8,75.9,51.8z"/>
				<g>
					<path class="st2" d="M77.2,52.3c0,0.3,0.2,0.6,0.5,0.6c0.3,0,0.5-0.3,0.5-0.6c0-0.3-0.2-0.6-0.5-0.6
						C77.5,51.7,77.2,52,77.2,52.3z"/>
				</g>
				<path class="st2" d="M82.5,55.8c-0.8-0.5-2-1-3.7-1.1c0,0,0,0.1,0,0.3c0,0.1,0,0.1,0,0.1C80.4,55.2,81.6,55.6,82.5,55.8
					C82.5,55.9,82.5,55.9,82.5,55.8C82.5,55.9,82.5,55.9,82.5,55.8C82.5,55.9,82.5,55.8,82.5,55.8z M78.7,49.4
					c-0.1-0.1-0.2-0.3-0.2-0.6c0.1-0.3,0.3-0.5,0.5-0.5c0.1,0.2,0.2,0.5,0.1,0.7C79,49.3,78.8,49.4,78.7,49.4z M79.9,50.5
					c0-0.2,0-0.4,0.2-0.5c0.2-0.2,0.5-0.2,0.7-0.2c0,0.2-0.1,0.5-0.3,0.6C80.3,50.6,80.1,50.5,79.9,50.5z M80,52
					c0.1-0.2,0.2-0.3,0.4-0.4c0.3,0,0.5,0.1,0.7,0.2c-0.1,0.2-0.3,0.3-0.6,0.4C80.2,52.3,80,52.2,80,52z M79.5,52.6
					c0.1-0.1,0.2-0.2,0.5-0.2c0.2,0,0.4,0.2,0.5,0.4c-0.1,0.1-0.4,0.2-0.6,0.2C79.6,52.9,79.5,52.8,79.5,52.6z M78.1,51.1
					c-0.2-0.1-0.3-0.4-0.2-0.7c0.1-0.3,0.3-0.6,0.6-0.6c0.2,0.2,0.2,0.6,0.1,0.9C78.6,51,78.3,51.1,78.1,51.1z M78.7,51.5
					c-0.1-0.2,0-0.4,0.2-0.6c0.2-0.2,0.5-0.3,0.8-0.2c0,0.2-0.1,0.5-0.3,0.7C79.1,51.6,78.9,51.5,78.7,51.5z M79.1,50.2
					c-0.1-0.2-0.2-0.4,0-0.7c0.2-0.3,0.5-0.5,0.8-0.5c0.1,0.2,0.1,0.6-0.1,0.9C79.6,50.2,79.3,50.2,79.1,50.2z M79.9,51.3
					c0-0.2,0.1-0.4,0.4-0.6c0.3-0.1,0.6-0.1,0.8,0c0,0.3-0.2,0.5-0.5,0.6C80.3,51.5,80.1,51.4,79.9,51.3z M77.3,49
					c0-0.4,0.2-0.8,0.4-0.9c0.3,0.2,0.4,0.5,0.4,0.9c0,0.4-0.2,0.6-0.4,0.7C77.5,49.6,77.3,49.4,77.3,49z M73,55.9
					C73,55.9,73,55.9,73,55.9C73,55.9,73.1,55.9,73,55.9c0.9-0.3,2.1-0.6,3.7-0.8c0,0,0-0.1,0-0.1c0-0.1,0-0.2,0-0.3
					C75,54.8,73.8,55.3,73,55.9C73,55.8,73,55.9,73,55.9z M76.4,49c-0.1-0.3,0-0.6,0.1-0.7c0.2,0.1,0.4,0.3,0.5,0.5
					c0.1,0.3,0,0.5-0.2,0.6C76.7,49.4,76.5,49.3,76.4,49z M75,50.4c-0.2-0.2-0.3-0.4-0.3-0.6c0.2-0.1,0.5,0,0.7,0.2
					c0.2,0.2,0.2,0.4,0.2,0.5C75.4,50.5,75.2,50.6,75,50.4z M75.1,52.3c-0.3,0-0.5-0.2-0.6-0.4c0.1-0.2,0.4-0.3,0.7-0.2
					c0.3,0,0.4,0.2,0.4,0.4C75.5,52.2,75.3,52.3,75.1,52.3z M75.7,53c-0.2,0-0.5,0-0.6-0.2c0.1-0.2,0.3-0.3,0.5-0.4
					c0.2,0,0.4,0.1,0.5,0.2C76,52.8,75.9,52.9,75.7,53z M76.9,50.7c-0.1-0.3,0-0.7,0.1-0.9c0.3,0.1,0.5,0.3,0.6,0.6
					c0.1,0.3,0,0.5-0.2,0.7C77.2,51.1,77,51,76.9,50.7z M76.2,51.4c-0.2-0.2-0.4-0.5-0.3-0.7c0.2-0.1,0.5,0,0.8,0.2
					c0.2,0.2,0.2,0.4,0.2,0.6C76.6,51.5,76.4,51.6,76.2,51.4z M75.7,49.9c-0.2-0.3-0.2-0.6-0.1-0.9c0.3,0,0.6,0.2,0.8,0.5
					c0.2,0.3,0.1,0.5,0,0.7C76.2,50.2,75.9,50.2,75.7,49.9z M74.9,51.4c-0.3-0.1-0.5-0.4-0.5-0.6c0.2-0.1,0.6-0.2,0.8,0
					c0.3,0.1,0.4,0.4,0.4,0.6C75.4,51.4,75.2,51.5,74.9,51.4z"/>
			</g>
			<path class="st2" d="M92.2,54.7v-2.2c0-0.3,0-0.9,0-1h0.7l0,0.4h0c0.1-0.1,0.3-0.5,0.9-0.5c0.7,0,1.1,0.5,1.1,1.2v2.1h-0.8v-1.9
				c0-0.4-0.2-0.7-0.6-0.7c-0.4,0-0.6,0.3-0.6,0.7v1.9H92.2z M87.8,51.5H87v3.2h0.8V51.5z M98.6,54.7c0-0.2-0.1-0.6-0.1-1.1v-2.1
				c-0.1,0-0.6-0.1-1-0.1c-1.3,0-1.8,0.9-1.8,1.8c0,0.9,0.4,1.5,1.3,1.5c0.6,0,0.9-0.4,1-0.6h0c0,0.1,0,0.4,0,0.5H98.6z M97.8,53.1
				c0,0.7-0.3,1-0.7,1c-0.4,0-0.7-0.4-0.7-1c0-0.6,0.4-1.2,1-1.2c0.1,0,0.2,0,0.3,0V53.1z M86.2,53.9c-0.2,0.1-0.5,0.2-0.9,0.2
				c-0.9,0-1.5-0.6-1.5-1.6c0-0.9,0.6-1.6,1.5-1.6c0.4,0,0.7,0.1,0.9,0.2v-0.7c-0.2-0.1-0.5-0.1-0.9-0.1c-1.4,0-2.3,0.9-2.3,2.2
				c0,1.2,0.8,2.2,2.3,2.2c0.4,0,0.7-0.1,0.9-0.1V53.9z M90.6,54.3v0.2c0,0.7-0.4,0.9-0.9,0.9c-0.4,0-0.8-0.1-0.9-0.2v0.6
				c0.1,0,0.4,0.1,1,0.1c0.9,0,1.5-0.4,1.5-1.7v-2.8c-0.1,0-0.6-0.1-1-0.1c-1.3,0-1.8,0.9-1.8,1.8c0,0.9,0.4,1.5,1.3,1.5
				C90.3,54.8,90.5,54.4,90.6,54.3L90.6,54.3z M90.6,53.1c0,0.7-0.3,1-0.7,1c-0.4,0-0.7-0.4-0.7-1c0-0.6,0.4-1.2,1-1.2
				c0.1,0,0.2,0,0.3,0V53.1z M86.9,50.7c0,0.3,0.2,0.5,0.5,0.5c0.3,0,0.5-0.2,0.5-0.5c0-0.3-0.2-0.5-0.5-0.5
				C87.1,50.2,86.9,50.4,86.9,50.7z"/>
		</g>
		<g>
			<path class="st2" d="M100.1,54.6c-0.1,0.1-0.2,0.1-0.3,0.1c-0.1,0-0.2,0-0.3-0.1c-0.1-0.1-0.1-0.2-0.1-0.3c0-0.1,0-0.2,0.1-0.3
				c0.1-0.1,0.2-0.1,0.3-0.1c0.1,0,0.2,0,0.3,0.1c0.1,0.1,0.1,0.2,0.1,0.3C100.2,54.4,100.1,54.5,100.1,54.6z M99.5,54
				c-0.1,0.1-0.1,0.2-0.1,0.3c0,0.1,0,0.2,0.1,0.3c0.1,0.1,0.2,0.1,0.3,0.1c0.1,0,0.2,0,0.3-0.1c0.1-0.1,0.1-0.2,0.1-0.3
				c0-0.1,0-0.2-0.1-0.3c-0.1-0.1-0.2-0.1-0.3-0.1C99.6,53.9,99.6,53.9,99.5,54z M99.7,54c0.1,0,0.1,0,0.1,0c0,0,0.1,0.1,0.1,0.1
				c0,0,0,0.1,0,0.1c0,0,0,0-0.1,0c0,0,0.1,0,0.1,0c0,0,0,0,0,0.1v0c0,0,0,0,0,0c0,0,0,0,0,0l0,0h-0.1c0,0,0,0,0,0c0,0,0,0,0,0l0,0
				v0c0-0.1,0-0.1,0-0.1c0,0,0,0-0.1,0h-0.1v0.2h-0.1V54H99.7z M99.8,54.1C99.8,54.1,99.8,54.1,99.8,54.1l-0.2,0v0.2h0.1
				c0,0,0.1,0,0.1,0C99.8,54.2,99.9,54.2,99.8,54.1C99.9,54.1,99.9,54.1,99.8,54.1z"/>
		</g>
	</g>
	<g>
		<path class="st2" d="M35.2,53.4h-0.6v1.1h-0.6v-3h1.1c0.6,0,1,0.4,1,0.9S35.8,53.4,35.2,53.4z M35.2,52.1h-0.5v0.8h0.5
			c0.3,0,0.4-0.2,0.4-0.4S35.5,52.1,35.2,52.1z"/>
		<path class="st2" d="M38.8,54.5l-0.6-1.2h-0.4v1.2h-0.6v-3h1.2c0.6,0,1,0.4,1,0.9c0,0.4-0.3,0.7-0.5,0.8l0.7,1.3H38.8z M38.3,52.1
			h-0.5v0.8h0.5c0.3,0,0.4-0.2,0.4-0.4S38.6,52.1,38.3,52.1z"/>
		<path class="st2" d="M40.4,54.5v-3h1.9v0.5H41v0.7h1.2v0.5H41V54h1.4v0.5H40.4z"/>
		<path class="st2" d="M44.2,54.6c-0.4,0-0.8-0.1-1.1-0.4l0.4-0.4c0.2,0.2,0.4,0.2,0.7,0.2c0.3,0,0.5-0.1,0.5-0.4
			c0-0.1,0-0.2-0.1-0.2c-0.1-0.1-0.1-0.1-0.3-0.1l-0.4,0c-0.3,0-0.4-0.1-0.6-0.2c-0.1-0.1-0.2-0.3-0.2-0.6c0-0.5,0.4-0.9,1-0.9
			c0.4,0,0.7,0.1,1,0.3l-0.4,0.4c-0.2-0.2-0.4-0.2-0.6-0.2c-0.3,0-0.5,0.2-0.5,0.4c0,0.1,0,0.2,0.1,0.2c0.1,0.1,0.2,0.1,0.3,0.1
			l0.3,0c0.3,0,0.4,0.1,0.6,0.2c0.2,0.1,0.2,0.4,0.2,0.6C45.3,54.2,44.8,54.6,44.2,54.6z"/>
		<path class="st2" d="M46.3,54.5v-3h1.9v0.5h-1.4v0.7h1.2v0.5h-1.2V54h1.4v0.5H46.3z"/>
		<path class="st2" d="M51,54.5l-1.2-1.8v1.8h-0.6v-3h0.5l1.2,1.8v-1.8h0.6v3H51z"/>
		<path class="st2" d="M53.9,52.1v2.4h-0.6v-2.4h-0.8v-0.5h2.1v0.5H53.9z"/>
		<path class="st2" d="M55.6,54.5v-3h1.9v0.5h-1.4v0.7h1.2v0.5h-1.2V54h1.4v0.5H55.6z"/>
		<path class="st2" d="M60.4,54.3c-0.2,0.2-0.5,0.3-0.8,0.3h-1.1v-3h1.1c0.3,0,0.6,0.1,0.8,0.3c0.3,0.3,0.3,0.7,0.3,1.2
			S60.8,53.9,60.4,54.3z M60,52.3c-0.1-0.1-0.2-0.2-0.4-0.2h-0.4V54h0.4c0.2,0,0.3-0.1,0.4-0.2c0.1-0.1,0.1-0.3,0.1-0.8
			S60.1,52.4,60,52.3z"/>
		<path class="st2" d="M64.5,54.5h-1.2v-3h1.2c0.6,0,0.9,0.3,0.9,0.8c0,0.3-0.2,0.5-0.4,0.6c0.2,0.1,0.4,0.3,0.4,0.7
			C65.4,54.2,65,54.5,64.5,54.5z M64.4,52.1h-0.6v0.7h0.6c0.2,0,0.4-0.1,0.4-0.3C64.8,52.2,64.6,52.1,64.4,52.1z M64.4,53.3h-0.6V54
			h0.6c0.3,0,0.4-0.2,0.4-0.4C64.8,53.5,64.7,53.3,64.4,53.3z"/>
		<path class="st2" d="M67.6,53.3v1.2H67v-1.2l-0.9-1.7h0.6l0.6,1.2l0.5-1.2h0.6L67.6,53.3z"/>
	</g>
</g>
</svg>
